<svg id="Logo" xmlns="http://www.w3.org/2000/svg" width="86" height="83.817" viewBox="0 0 86 83.817">
  <g id="to-do-list_1_" data-name="to-do-list (1)" transform="translate(15.8)">
    <path id="Path_9" data-name="Path 9" d="M352,26.115V15.123a5.123,5.123,0,0,1,10.245,0V23.98a2.134,2.134,0,0,1-2.134,2.134Zm0,0" transform="translate(-314.431 -8.933)" fill="#feda9b"/>
    <path id="Path_10" data-name="Path 10" d="M51.62,10h-36.5A5.122,5.122,0,0,0,10,15.123V54.608a2.134,2.134,0,0,0,2.134,2.134H46.5V15.123A5.123,5.123,0,0,1,51.62,10" transform="translate(-8.933 -8.933)" fill="#fff"/>
    <path id="Path_11" data-name="Path 11" d="M245.9,218.564l-1.57-3.768a10.8,10.8,0,0,1-.831-4.156v-8.275a2.264,2.264,0,0,1,4.411-.716l1.609,4.825a2.853,2.853,0,0,0,5.559-.9V184.7l3.247,3.241a14.51,14.51,0,0,1,4.259,10.268v11.344a21.024,21.024,0,0,1-2.028,9.007" transform="translate(-217.514 -164.991)" fill="#ffd0bb"/>
    <g id="Group_1" data-name="Group 1" transform="translate(6.795 6.83)">
      <g id="Group_2" data-name="Group 2" transform="translate(3.415 0)">
        <path id="Path_14" data-name="Path 14" d="M66.549,310.829H64.2c-.295,0-.534-.478-.534-1.067v-4.7c0-.589.239-1.067.534-1.067h2.348c.295,0,.534.478.534,1.067v4.7C67.083,310.352,66.844,310.829,66.549,310.829Zm0,0" transform="translate(-63.668 -278.387)" fill="#16bac5"/>
        <path id="Path_12" data-name="Path 12" d="M66.549,70.83H64.2c-.295,0-.534-.478-.534-1.067v-4.7c0-.589.239-1.067.534-1.067h2.348c.295,0,.534.478.534,1.067v4.7C67.083,70.352,66.844,70.83,66.549,70.83Zm0,0" transform="translate(-63.668 -64)" fill="#16bac5"/>
        <path id="Path_13" data-name="Path 13" d="M66.549,190.83H64.2c-.295,0-.534-.478-.534-1.067v-4.7c0-.589.239-1.067.534-1.067h2.348c.295,0,.534.478.534,1.067v4.7C67.083,190.352,66.844,190.83,66.549,190.83Zm0,0" transform="translate(-63.668 -171.194)" fill="#16bac5"/>
      </g>
      <path id="Path_12-2" data-name="Path 12" d="M69.431,70.83h-4.7a1.067,1.067,0,0,1-1.067-1.067v-4.7A1.067,1.067,0,0,1,64.735,64h4.7A1.067,1.067,0,0,1,70.5,65.067v4.7A1.067,1.067,0,0,1,69.431,70.83Zm0,0" transform="translate(-63.668 -64)" fill="#16bac5"/>
      <path id="Path_13-2" data-name="Path 13" d="M69.431,190.83h-4.7a1.067,1.067,0,0,1-1.067-1.067v-4.7A1.067,1.067,0,0,1,64.735,184h4.7a1.067,1.067,0,0,1,1.067,1.067v4.7A1.067,1.067,0,0,1,69.431,190.83Zm0,0" transform="translate(-63.668 -171.194)" fill="#16bac5"/>
      <path id="Path_14-2" data-name="Path 14" d="M69.431,310.829h-4.7a1.067,1.067,0,0,1-1.067-1.067v-4.7A1.067,1.067,0,0,1,64.735,304h4.7a1.067,1.067,0,0,1,1.067,1.067v4.7A1.067,1.067,0,0,1,69.431,310.829Zm0,0" transform="translate(-63.668 -278.387)" fill="#eb8576"/>
    </g>
    <path id="Path_15" data-name="Path 15" d="M42.687,0H6.19A6.2,6.2,0,0,0,0,6.19V45.676a3.205,3.205,0,0,0,3.2,3.2H17.217a1.067,1.067,0,0,0,0-2.134H3.2a1.068,1.068,0,0,1-1.067-1.067V6.19A4.06,4.06,0,0,1,6.19,2.134H38.017A6.163,6.163,0,0,0,36.5,6.19V40.582a1.786,1.786,0,0,1-3.48.565L31.41,36.321a3.331,3.331,0,0,0-6.491,1.053v.831H19.388a1.067,1.067,0,1,0,0,2.134h5.532v5.309a11.809,11.809,0,0,0,.913,4.566l1.57,3.768a1.067,1.067,0,1,0,1.97-.821L27.8,49.395a9.69,9.69,0,0,1-.749-3.745V37.374A1.2,1.2,0,0,1,29.385,37l1.608,4.826a3.92,3.92,0,0,0,7.639-1.24v-18.3l1.426,1.423A13.351,13.351,0,0,1,44,33.221V44.566a20.082,20.082,0,0,1-1.925,8.55,1.067,1.067,0,1,0,1.928.915,22.23,22.23,0,0,0,2.131-9.465V33.221A15.472,15.472,0,0,0,41.566,22.2l-2.934-2.929v-1.02h7.044a3.205,3.205,0,0,0,3.2-3.2V6.19A6.2,6.2,0,0,0,42.687,0Zm4.055,15.047a1.068,1.068,0,0,1-1.067,1.067H38.632V6.19a4.055,4.055,0,0,1,8.111,0Zm0,0" transform="translate(0)"/>
    <path id="Path_16" data-name="Path 16" d="M196.067,438a1.067,1.067,0,1,0,.755.313A1.075,1.075,0,0,0,196.067,438Zm0,0" transform="translate(-174.19 -391.253)"/>
    <path id="Path_17" data-name="Path 17" d="M62.632,56.134A2.137,2.137,0,0,0,60.5,54H55.8a2.137,2.137,0,0,0-2.134,2.134v4.7A2.137,2.137,0,0,0,55.8,62.964h4.7a2.137,2.137,0,0,0,2.134-2.134ZM60.5,60.83H55.8v-4.7h4.7v4.7Zm0,0" transform="translate(-47.941 -48.237)"/>
    <path id="Path_18" data-name="Path 18" d="M62.632,176.134A2.137,2.137,0,0,0,60.5,174H55.8a2.137,2.137,0,0,0-2.134,2.134v4.7a2.137,2.137,0,0,0,2.134,2.134h4.7a2.137,2.137,0,0,0,2.134-2.134Zm-2.134,4.7H55.8v-4.7h4.7v4.7Zm0,0" transform="translate(-47.941 -155.431)"/>
    <path id="Path_19" data-name="Path 19" d="M60.5,294H55.8a2.136,2.136,0,0,0-2.134,2.134v4.7a2.136,2.136,0,0,0,2.134,2.134h4.7a2.137,2.137,0,0,0,2.134-2.134v-4.7A2.137,2.137,0,0,0,60.5,294Zm0,6.83H55.8v-4.7h4.7v4.7Zm0,0" transform="translate(-47.941 -262.624)"/>
    <path id="Path_20" data-name="Path 20" d="M225.819,120.134a1.067,1.067,0,0,0,0-2.134h-7.357a1.067,1.067,0,0,0,0,2.134Zm0,0" transform="translate(-194.194 -105.407)"/>
    <path id="Path_21" data-name="Path 21" d="M172.735,120.134a1.067,1.067,0,1,0-.755-.313A1.075,1.075,0,0,0,172.735,120.134Zm0,0" transform="translate(-153.348 -105.407)"/>
    <path id="Path_22" data-name="Path 22" d="M172.731,240.134h12.237a1.067,1.067,0,0,0,0-2.134H172.731a1.067,1.067,0,0,0,0,2.134Zm0,0" transform="translate(-153.344 -212.601)"/>
  </g>
  <text id="DEFINEY" transform="translate(0 78.817)" fill="#16bac5" font-size="20" font-family="Atami-DisplayRegular, Atami Display"><tspan x="0" y="0">DEFINEY</tspan></text>
</svg>
